<svg xmlns="http://www.w3.org/2000/svg" version="1.1" xmlns:xlink="http://www.w3.org/1999/xlink" width="200" height="200"><svg xmlns="http://www.w3.org/2000/svg" version="1.1" xmlns:xlink="http://www.w3.org/1999/xlink" width="200" height="200"><svg xmlns="http://www.w3.org/2000/svg" version="1.1" xmlns:xlink="http://www.w3.org/1999/xlink" viewBox="0 0 200 200"><rect width="200" height="200" fill="url('#gradient')"></rect><defs><linearGradient id="gradient" gradientTransform="rotate(118 0.5 0.5)"><stop offset="0%" stop-color="#ceaa96"></stop><stop offset="100%" stop-color="#8fa983"></stop></linearGradient></defs><g><g fill="#445272" transform="matrix(1.6168421052631579,0,0,1.6168421052631579,8.265181310804266,111.97494218725907)" stroke="#c8512e" stroke-width="0.2"><path d="M1.07-14.22L5.58-14.22L8.75-4.33L11.91-14.22L16.43-14.22L16.43 0L12.99 0L12.99-3.32L13.32-10.12L9.88 0L7.62 0L4.17-10.13L4.50-3.32L4.50 0L1.07 0L1.07-14.22ZM23.56 0.20L23.56 0.20Q21.13 0.20 19.63-1.25Q18.13-2.71 18.13-5.03L18.13-5.03L18.13-5.30Q18.13-6.92 18.73-8.16Q19.33-9.40 20.48-10.08Q21.63-10.76 23.21-10.76L23.21-10.76Q25.44-10.76 26.73-9.38Q28.02-8.00 28.02-5.53L28.02-5.53L28.02-4.25L21.47-4.25Q21.65-3.36 22.25-2.85Q22.84-2.34 23.79-2.34L23.79-2.34Q25.35-2.34 26.23-3.44L26.23-3.44L27.73-1.66Q27.12-0.81 25.99-0.31Q24.86 0.20 23.56 0.20ZM23.19-8.22L23.19-8.22Q21.75-8.22 21.47-6.31L21.47-6.31L24.79-6.31L24.79-6.56Q24.81-7.35 24.39-7.79Q23.97-8.22 23.19-8.22ZM28.93-5.36L28.93-5.36Q28.93-7.87 30.01-9.32Q31.09-10.76 33.04-10.76L33.04-10.76Q34.45-10.76 35.42-9.65L35.42-9.65L35.42-15L38.72-15L38.72 0L35.76 0L35.60-1.13Q34.58 0.20 33.02 0.20L33.02 0.20Q31.13 0.20 30.03-1.25Q28.93-2.70 28.93-5.36ZM32.23-5.76L32.22-5.16Q32.22-2.34 33.86-2.34L33.86-2.34Q34.95-2.34 35.42-3.26L35.42-3.26L35.42-7.29Q34.97-8.22 33.88-8.22L33.88-8.22Q32.35-8.22 32.23-5.76L32.23-5.76ZM44.06-10.57L44.06 0L40.76 0L40.76-10.57L44.06-10.57ZM40.57-13.29L40.57-13.29Q40.57-13.99 41.07-14.44Q41.58-14.89 42.39-14.89Q43.20-14.89 43.71-14.44Q44.22-13.99 44.22-13.29Q44.22-12.59 43.71-12.14Q43.20-11.69 42.39-11.69Q41.58-11.69 41.07-12.14Q40.57-12.59 40.57-13.29ZM55.33 0L52.04 0Q51.87-0.32 51.73-0.95L51.73-0.95Q50.82 0.20 49.19 0.20L49.19 0.20Q47.70 0.20 46.65-0.71Q45.61-1.61 45.61-2.98L45.61-2.98Q45.61-4.70 46.88-5.58Q48.14-6.46 50.57-6.46L50.57-6.46L51.58-6.46L51.58-7.01Q51.58-8.47 50.32-8.47L50.32-8.47Q49.15-8.47 49.15-7.31L49.15-7.31L45.86-7.31Q45.86-8.85 47.16-9.80Q48.47-10.76 50.49-10.76Q52.51-10.76 53.68-9.78Q54.85-8.79 54.88-7.07L54.88-7.07L54.88-2.39Q54.90-0.94 55.33-0.17L55.33-0.17L55.33 0ZM49.98-2.15L49.98-2.15Q50.60-2.15 51.00-2.41Q51.41-2.68 51.58-3.01L51.58-3.01L51.58-4.70L50.63-4.70Q48.91-4.70 48.91-3.15L48.91-3.15Q48.91-2.71 49.21-2.43Q49.51-2.15 49.98-2.15ZM60.28-14.22L60.28-2.64L66.25-2.64L66.25 0L56.86 0L56.86-14.22L60.28-14.22ZM71.02-10.57L71.02 0L67.71 0L67.71-10.57L71.02-10.57ZM67.52-13.29L67.52-13.29Q67.52-13.99 68.03-14.44Q68.54-14.89 69.35-14.89Q70.16-14.89 70.66-14.44Q71.17-13.99 71.17-13.29Q71.17-12.59 70.66-12.14Q70.16-11.69 69.35-11.69Q68.54-11.69 68.03-12.14Q67.52-12.59 67.52-13.29ZM72.98-10.57L76.06-10.57L76.17-9.33Q77.27-10.76 79.19-10.76L79.19-10.76Q80.84-10.76 81.66-9.78Q82.47-8.79 82.50-6.81L82.50-6.81L82.50 0L79.20 0L79.20-6.67Q79.20-7.47 78.88-7.85Q78.55-8.22 77.71-8.22L77.71-8.22Q76.74-8.22 76.27-7.46L76.27-7.46L76.27 0L72.98 0L72.98-10.57ZM90.87 0L88.56-3.94L87.64-3.01L87.64 0L84.35 0L84.35-15.01L87.64-15.01L87.64-7.04L87.97-7.48L90.45-10.57L94.39-10.57L90.69-6.22L94.64 0L90.87 0ZM100.18 0.20L100.18 0.20Q97.74 0.20 96.24-1.25Q94.74-2.71 94.74-5.03L94.74-5.03L94.74-5.30Q94.74-6.92 95.34-8.16Q95.94-9.40 97.09-10.08Q98.24-10.76 99.82-10.76L99.82-10.76Q102.05-10.76 103.34-9.38Q104.63-8.00 104.63-5.53L104.63-5.53L104.63-4.25L98.09-4.25Q98.26-3.36 98.86-2.85Q99.45-2.34 100.40-2.34L100.40-2.34Q101.96-2.34 102.84-3.44L102.84-3.44L104.35-1.66Q103.73-0.81 102.60-0.31Q101.47 0.20 100.18 0.20ZM99.80-8.22L99.80-8.22Q98.36-8.22 98.09-6.31L98.09-6.31L101.41-6.31L101.41-6.56Q101.43-7.35 101.01-7.79Q100.59-8.22 99.80-8.22ZM112.40-10.64L112.34-7.59L111.26-7.67Q109.71-7.67 109.27-6.69L109.27-6.69L109.27 0L105.98 0L105.98-10.57L109.06-10.57L109.17-9.21Q110-10.76 111.48-10.76L111.48-10.76Q112.01-10.76 112.40-10.64L112.40-10.64Z"></path></g></g></svg></svg><style>@media (prefers-color-scheme: light) { :root { filter: none; } }
@media (prefers-color-scheme: dark) { :root { filter: none; } }
</style></svg>